<?xml version="1.0" encoding="utf-8"?>
<!-- Generator: Adobe Illustrator 27.1.1, SVG Export Plug-In . SVG Version: 6.00 Build 0)  -->
<svg version="1.1" xmlns="http://www.w3.org/2000/svg" xmlns:xlink="http://www.w3.org/1999/xlink" x="0px" y="0px"
	 viewBox="0 0 226.8 226.8" style="enable-background:new 0 0 226.8 226.8;" xml:space="preserve">
<style type="text/css">
	.st0{fill-rule:evenodd;clip-rule:evenodd;fill:#FBBB21;}
	.st1{fill-rule:evenodd;clip-rule:evenodd;}
</style>
<g id="alt">
</g>
<g id="neu">
	<circle class="st0" cx="113.4" cy="113.4" r="113.4"/>
	<g>
		<path class="st1" d="M105.5,95.3h-26c0.2-3.7-1.1-6-3.2-7.6c-2.1-1.6-5.1-2.1-8.3-2.1c-4.8,0-10.9,1.4-10.9,7.4
			c0,6.9,13.7,7.4,22.7,10.6c16,5.6,21.3,14.4,21.3,25.2c0,22.2-21.5,32.6-41.4,32.6c-21.1,0-40.1-9.7-38.9-32.9h27.3
			c0,4.9,1.1,8.1,3.5,10.4c2.5,2.1,5.8,2.3,10.4,2.3c5.5,0,12.3-2.8,12.3-8.8c0-6.7-9.3-7.6-22.2-11.8c-11.1-3.7-22-9.7-22-24.8
			c0.4-20.8,20.2-30.3,38.7-30.3C88.5,65.4,106.1,72.8,105.5,95.3L105.5,95.3z"/>
		<polygon points="205.9,66.4 170,66.4 154.3,89.6 145.4,66.4 111.8,66.4 133.4,110.9 133.2,111.2 91,161.3 127.5,161.3 
			147.2,135.5 159,161.3 192.6,161.3 168.4,112.2 		"/>
	</g>
</g>
<g id="png">
</g>
</svg>
